<?xml version="1.0" encoding="UTF-8"?>
<svg id="Layer_2" data-name="Layer 2" xmlns="http://www.w3.org/2000/svg" viewBox="0 0 20 20">
  <defs>
    <style>
      .cls-1 {
        fill: #ff5722;
      }

      .cls-2 {
        fill: #1c0802;
      }
    </style>
  </defs>
  <g id="container-grid">
    <g>
      <path class="cls-1" d="M0,2.22C0,.99,.99,0,2.22,0h15.56c1.23,0,2.22,.99,2.22,2.22v15.56c0,1.23-1,2.22-2.22,2.22H2.22c-1.23,0-2.22-1-2.22-2.22V2.22Z"/>
      <path class="cls-2" d="M1.67,1.67V18.33H18.33V1.67H1.67ZM9.83,13.89l-.42-1.62h-2.18l-.42,1.62h-1.69l2.47-7.9h1.46l2.48,7.9h-1.7Zm3.98,0h-1.54v-5.87h1.54v5.87Zm-.17-6.8c-.15,.16-.35,.23-.61,.23s-.46-.08-.61-.23-.23-.35-.23-.59,.08-.43,.23-.59,.35-.23,.61-.23,.46,.08,.61,.23,.23,.35,.23,.59c0,.24-.07,.43-.22,.59Z"/>
      <path class="cls-2" d="M7.58,10.94h1.48l-.74-2.82-.74,2.82Z"/>
    </g>
  </g>
</svg>