<?xml version="1.0" encoding="UTF-8"?>
<svg id="Layer_2" data-name="Layer 2" xmlns="http://www.w3.org/2000/svg" viewBox="0 0 12 20">
  <defs>
    <style>
      .cls-1 {
        fill: #29b6f6;
      }

      .cls-2 {
        fill: #7c4dff;
      }

      .cls-3 {
        fill: #e64a19;
      }

      .cls-4 {
        fill: #66bb6a;
      }

      .cls-5 {
        fill: #ff7043;
      }
    </style>
  </defs>
  <g id="container-grid">
    <g>
      <path class="cls-3" d="M6.43,6.67H3c-1.66,0-3-1.49-3-3.33H0C0,1.49,1.34,0,3,0h3.43V6.67Z"/>
      <path class="cls-2" d="M6,13.33H3c-1.66,0-3-1.49-3-3.33H0c0-1.84,1.34-3.33,3-3.33h3v6.67Z"/>
      <path class="cls-4" d="M3,20h0c-1.66,0-3-1.49-3-3.33H0c0-1.84,1.34-3.33,3-3.33h3v3.33c0,1.84-1.34,3.33-3,3.33Z"/>
      <path class="cls-5" d="M9,6.67h-3V0h3c1.66,0,3,1.49,3,3.33h0c0,1.84-1.34,3.33-3,3.33Z"/>
      <ellipse class="cls-1" cx="9" cy="10" rx="3" ry="3.33"/>
    </g>
  </g>
</svg>