<?xml version="1.0" encoding="UTF-8"?>
<svg id="Layer_2" data-name="Layer 2" xmlns="http://www.w3.org/2000/svg" viewBox="0 0 19.56 20">
  <defs>
    <style>
      .cls-1 {
        fill: #fff;
      }

      .cls-2 {
        fill: #d6ba31;
      }

      .cls-3 {
        fill: #ffda3d;
      }
    </style>
  </defs>
  <g id="container-grid">
    <g>
      <path class="cls-2" d="M19.12,0S19.1,0,19.08,0H.48c-.26,0-.48,.19-.48,.43,0,.01,0,.03,0,.04L1.68,17.62c.02,.18,.15,.33,.34,.38l7.62,1.99c.09,.02,.18,.02,.26,0l7.63-1.99c.19-.05,.33-.2,.34-.38L19.56,.47c.02-.24-.17-.45-.43-.47Z"/>
      <path class="cls-3" d="M9.79,1.67h7.77c-.37,5-.73,10-1.1,15-2.22,.63-4.44,1.27-6.67,1.9V1.67Z"/>
      <path class="cls-1" d="M8.64,3.33h-1.76c-.24,0-.44,.2-.44,.45V12.18l-2.52-.72c-.23-.07-.48,.07-.54,.31-.01,.04-.02,.08-.02,.12v2.23c0,.2,.13,.38,.32,.43l4.84,1.37c.23,.07,.48-.07,.54-.31,.01-.04,.02-.08,.02-.12V3.78c0-.25-.2-.45-.44-.45Z"/>
      <path class="cls-1" d="M16.29,3.33s-.03,0-.04,0h-5.31c-.24,0-.44,.2-.44,.45v7.66c0,.25,.2,.45,.44,.45,.03,0,.05,0,.08,0l2.54-.45-.05,.8-2.68,.75c-.19,.05-.32,.23-.32,.43v2.07c0,.25,.2,.45,.44,.45,.04,0,.08,0,.12-.02l4.42-1.24c.18-.05,.31-.21,.32-.4l.47-5.52c.02-.25-.16-.47-.4-.49-.03,0-.07,0-.1,0l-2.62,.38v-2.64h2.94c.23,0,.42-.18,.44-.41l.15-1.8c.02-.25-.16-.47-.4-.49Z"/>
    </g>
  </g>
</svg>