<?xml version="1.0" encoding="UTF-8"?>
<svg id="Layer_2" data-name="Layer 2" xmlns="http://www.w3.org/2000/svg" viewBox="0 0 20 20">
  <defs>
    <style>
      .cls-1 {
        fill: #03a9f4;
      }

      .cls-2 {
        fill: #020f16;
      }
    </style>
  </defs>
  <g id="container-grid">
    <g>
      <path class="cls-1" d="M0,2.22C0,.99,.99,0,2.22,0h15.56c1.23,0,2.22,.99,2.22,2.22v15.56c0,1.23-1,2.22-2.22,2.22H2.22c-1.23,0-2.22-1-2.22-2.22V2.22Z"/>
      <path class="cls-2" d="M7.79,7.32h-1.11v2.46h1.1c.3,0,.54-.1,.71-.3s.25-.49,.25-.87-.08-.71-.25-.94-.4-.35-.68-.36Z"/>
      <path class="cls-2" d="M1.67,1.67V18.33H18.33V1.67H1.67Zm7.98,8.77c-.46,.45-1.1,.67-1.91,.67h-1.06v2.78h-1.6V5.99h2.69c.78,0,1.4,.24,1.87,.73s.7,1.11,.7,1.89-.23,1.39-.69,1.83Zm5.18,3.08c-.39,.32-.91,.48-1.55,.48-.43,0-.81-.08-1.14-.25s-.59-.4-.77-.7-.28-.62-.28-.97h1.46c0,.27,.07,.47,.19,.6s.31,.2,.58,.2c.41,0,.62-.19,.62-.56,0-.13-.06-.25-.19-.36s-.4-.26-.83-.45c-.63-.26-1.07-.52-1.31-.8s-.36-.62-.36-1.03c0-.51,.19-.94,.56-1.27s.86-.5,1.47-.5c.64,0,1.16,.17,1.55,.5,.39,.33,.58,.78,.58,1.34h-1.54c0-.48-.2-.72-.6-.72-.16,0-.3,.05-.4,.15s-.16,.24-.16,.42c0,.13,.06,.24,.17,.34s.39,.24,.82,.43c.63,.23,1.07,.49,1.33,.77s.39,.65,.39,1.1c0,.52-.2,.95-.59,1.26Z"/>
    </g>
  </g>
</svg>