<?xml version="1.0" encoding="UTF-8"?>
<svg id="Layer_2" data-name="Layer 2" xmlns="http://www.w3.org/2000/svg" viewBox="0 0 25 25.5">
  <defs>
    <style>
      .cls-1 {
        fill: #fff;
      }

      .cls-2 {
        fill: #e65100;
      }

      .cls-3 {
        fill: #ff6d00;
      }

      .cls-4 {
        fill: #eee;
      }
    </style>
  </defs>
  <g id="container-grid">
    <g>
      <path class="cls-2" d="M25,0H0L2.21,22.82l10.29,2.68,10.29-2.68L25,0h0Z"/>
      <path class="cls-3" d="M12.5,2.01V23.42l8.24-2.15,1.84-19.26H12.5Z"/>
      <path class="cls-1" d="M12.5,13.42v-2.68h6.32l-.51,7.72-5.81,1.75v-2.82l3.01-.94,.22-3.02h-3.24Zm6.54-5.37l.22-2.68h-6.76v2.68h6.54Z"/>
      <path class="cls-4" d="M12.5,17.38v2.82l-5.81-1.75-.29-3.69h2.94l.15,1.68,3.01,.94Zm-3.6-9.33h3.6v-2.68H5.81l.51,8.05h6.18v-2.68h-3.38l-.22-2.68Z"/>
    </g>
  </g>
</svg>