<?xml version="1.0" encoding="UTF-8"?>
<svg id="Layer_2" data-name="Layer 2" xmlns="http://www.w3.org/2000/svg" viewBox="0 0 25.42 25.53">
  <defs>
    <style>
      .cls-1 {
        fill: #fff;
      }

      .cls-2 {
        fill: #d6ba31;
      }

      .cls-3 {
        fill: #ffda3d;
      }
    </style>
  </defs>
  <g id="container-grid">
    <g>
      <path class="cls-2" d="M24.86,0S24.82,0,24.81,0H.62C.28,0,0,.25,0,.56c0,.02,0,.03,0,.05L2.18,22.49c.02,.23,.2,.42,.45,.48l9.91,2.54c.11,.03,.23,.03,.34,0l9.92-2.54c.25-.06,.42-.26,.45-.48L25.42,.6c.03-.31-.22-.58-.56-.6Z"/>
      <path class="cls-3" d="M12.73,2.13h10.1c-.48,6.38-.95,12.77-1.43,19.15-2.89,.81-5.78,1.62-8.67,2.43V2.13Z"/>
      <path class="cls-1" d="M11.23,4.26h-2.29c-.32,0-.57,.26-.57,.58V15.55l-3.28-.91c-.3-.08-.62,.09-.7,.4-.01,.05-.02,.1-.02,.15v2.85c0,.26,.17,.48,.42,.55l6.29,1.76c.3,.08,.62-.09,.7-.4,.01-.05,.02-.1,.02-.15V4.83c0-.32-.26-.58-.57-.58Z"/>
      <path class="cls-1" d="M21.18,4.26s-.03,0-.05,0h-6.9c-.32,0-.57,.26-.57,.58V14.61c0,.32,.26,.58,.57,.58,.03,0,.07,0,.1,0l3.3-.57-.07,1.02-3.49,.96c-.25,.07-.42,.3-.42,.55v2.65c0,.32,.26,.58,.57,.58,.05,0,.1,0,.15-.02l5.75-1.58c.23-.06,.4-.27,.42-.51l.61-7.05c.03-.32-.21-.6-.52-.62-.04,0-.09,0-.13,0l-3.4,.48v-3.36h3.83c.3,0,.55-.23,.57-.53l.2-2.3c.03-.32-.21-.6-.52-.62Z"/>
    </g>
  </g>
</svg>