<?xml version="1.0" encoding="UTF-8"?>
<svg id="Layer_2" data-name="Layer 2" xmlns="http://www.w3.org/2000/svg" viewBox="0 0 26 23.4">
  <defs>
    <style>
      .cls-1 {
        fill: #fff;
      }

      .cls-2 {
        fill: #f7a278;
      }

      .cls-3 {
        fill: #dc4c2c;
      }

      .cls-4 {
        fill: #9b341f;
      }

      .cls-5 {
        fill: #c06346;
      }
    </style>
  </defs>
  <g id="container-grid">
    <g>
      <path class="cls-3" d="M2.6,11.7c0,6.46,5.24,11.7,11.7,11.7s11.7-5.24,11.7-11.7H2.6Z"/>
      <path class="cls-2" d="M14.3,0V11.7h11.7C26,5.24,20.76,0,14.3,0Z"/>
      <path class="cls-5" d="M14.3,0C7.84,0,2.6,5.24,2.6,11.7H14.3V0Z"/>
      <path class="cls-4" d="M11.91,18.2H1.09c-.6,0-1.09-.49-1.09-1.09V6.29c0-.6,.49-1.09,1.09-1.09H11.91c.6,0,1.09,.49,1.09,1.09v10.81c0,.6-.49,1.09-1.09,1.09Z"/>
      <path class="cls-1" d="M6.94,8.46H3.9v6.5h1.32v-2.29h1.48c1.22,0,2.21-.99,2.21-2.21v-.04c0-1.09-.88-1.97-1.97-1.97Zm.58,2.17c0,.56-.45,1.01-1.01,1.01h-1.29v-2.16h1.29c.56,0,1.01,.45,1.01,1.01v.14Z"/>
    </g>
  </g>
</svg>